<svg width="18" height="18" viewBox="0 0 18 18" fill="none" xmlns="http://www.w3.org/2000/svg">
<path d="M18 9.19988C18 8.45989 17.9387 7.91989 17.8061 7.35989H9.18347V10.6999H14.2448C14.1428 11.5299 13.5917 12.7799 12.3672 13.6198L12.35 13.7317L15.0763 15.8014L15.2652 15.8199C16.9999 14.2499 18 11.9399 18 9.19988" fill="#4285F4"/>
<path d="M9.18239 18C11.662 18 13.7436 17.2 15.2641 15.82L12.3661 13.6199C11.5906 14.1499 10.5497 14.5199 9.18239 14.5199C6.75379 14.5199 4.69255 12.95 3.95777 10.7799L3.85007 10.7889L1.01522 12.9389L0.978149 13.0399C2.48836 15.9799 5.59046 18 9.18239 18Z" fill="#34A853"/>
<path d="M3.95922 10.78C3.76534 10.22 3.65314 9.61999 3.65314 9.00002C3.65314 8.37999 3.76534 7.78001 3.94902 7.22002L3.94389 7.10075L1.0735 4.91621L0.979587 4.95999C0.357154 6.18 0 7.55003 0 9.00002C0 10.45 0.357154 11.82 0.979587 13.04L3.95922 10.78" fill="#FBBC05"/>
<path d="M9.18244 3.47997C10.9069 3.47997 12.0702 4.20997 12.7335 4.82001L15.3254 2.34C13.7336 0.890003 11.662 0 9.18244 0C5.59049 0 2.48837 2.01998 0.978149 4.95996L3.94759 7.21999C4.69257 5.04999 6.75383 3.47997 9.18244 3.47997" fill="#EB4335"/>
</svg>
