<svg width="30" height="30" viewBox="0 0 30 30" fill="none" xmlns="http://www.w3.org/2000/svg">
<path d="M9.5625 26.1375C9.525 26.1375 9.475 26.1625 9.4375 26.1625C7.0125 24.9625 5.0375 22.975 3.825 20.55C3.825 20.5125 3.85 20.4625 3.85 20.425C5.375 20.875 6.95 21.2125 8.5125 21.475C8.7875 23.05 9.1125 24.6125 9.5625 26.1375Z" fill="#34A853"/>
<path d="M26.175 20.5625C24.9375 23.05 22.875 25.0625 20.3625 26.275C20.8375 24.6875 21.2375 23.0875 21.5 21.475C23.075 21.2125 24.625 20.875 26.15 20.425C26.1375 20.475 26.175 20.525 26.175 20.5625Z" fill="#34A853"/>
<path d="M26.275 9.63748C24.7 9.16248 23.1125 8.77498 21.5 8.49998C21.2375 6.88748 20.85 5.28748 20.3625 3.72498C22.95 4.96248 25.0375 7.04998 26.275 9.63748Z" fill="#34A853"/>
<path d="M9.5625 3.86251C9.1125 5.38751 8.7875 6.93751 8.525 8.51251C6.9125 8.76251 5.3125 9.16251 3.725 9.63751C4.9375 7.12501 6.95 5.06251 9.4375 3.82501C9.475 3.82501 9.525 3.86251 9.5625 3.86251Z" fill="#34A853"/>
<path d="M19.3625 8.2375C16.4625 7.9125 13.5375 7.9125 10.6375 8.2375C10.95 6.525 11.35 4.8125 11.9125 3.1625C11.9375 3.0625 11.925 2.9875 11.9375 2.8875C12.925 2.65 13.9375 2.5 15 2.5C16.05 2.5 17.075 2.65 18.05 2.8875C18.0625 2.9875 18.0625 3.0625 18.0875 3.1625C18.65 4.825 19.05 6.525 19.3625 8.2375Z" fill="#34A853"/>
<path d="M8.2375 19.3625C6.5125 19.05 4.8125 18.65 3.1625 18.0875C3.0625 18.0625 2.9875 18.075 2.8875 18.0625C2.65 17.075 2.5 16.0625 2.5 15C2.5 13.95 2.65 12.925 2.8875 11.95C2.9875 11.9375 3.0625 11.9375 3.1625 11.9125C4.825 11.3625 6.5125 10.95 8.2375 10.6375C7.925 13.5375 7.925 16.4625 8.2375 19.3625Z" fill="#34A853"/>
<path d="M27.5 15C27.5 16.0625 27.35 17.075 27.1125 18.0625C27.0125 18.075 26.9375 18.0625 26.8375 18.0875C25.175 18.6375 23.475 19.05 21.7625 19.3625C22.0875 16.4625 22.0875 13.5375 21.7625 10.6375C23.475 10.95 25.1875 11.35 26.8375 11.9125C26.9375 11.9375 27.0125 11.95 27.1125 11.95C27.35 12.9375 27.5 13.95 27.5 15Z" fill="#34A853"/>
<path d="M19.3625 21.7625C19.05 23.4875 18.65 25.1875 18.0875 26.8375C18.0625 26.9375 18.0625 27.0125 18.05 27.1125C17.075 27.35 16.05 27.5 15 27.5C13.9375 27.5 12.925 27.35 11.9375 27.1125C11.925 27.0125 11.9375 26.9375 11.9125 26.8375C11.3625 25.175 10.95 23.4875 10.6375 21.7625C12.0875 21.925 13.5375 22.0375 15 22.0375C16.4625 22.0375 17.925 21.925 19.3625 21.7625Z" fill="#34A853"/>
<path d="M19.7042 19.7042C16.5778 20.0986 13.4222 20.0986 10.2958 19.7042C9.90139 16.5778 9.90139 13.4222 10.2958 10.2958C13.4222 9.90139 16.5778 9.90139 19.7042 10.2958C20.0986 13.4222 20.0986 16.5778 19.7042 19.7042Z" fill="#34A853"/>
</svg>
