<svg width="105" height="91" viewBox="0 0 105 91" fill="none" xmlns="http://www.w3.org/2000/svg">
<path d="M78.1333 0.493797L104.527 45.46C104.72 45.7903 104.709 46.2023 104.496 46.5209L103.728 47.6732C103.319 48.287 102.409 48.2616 102.034 47.6259L77.1527 5.37409C76.7784 4.73843 75.8681 4.71304 75.459 5.32683L74.6877 6.48375C74.4769 6.79996 74.4635 7.20833 74.6532 7.53763L100.534 52.4624C100.723 52.7917 100.71 53.2 100.499 53.5163L99.7281 54.6732C99.3189 55.287 98.4086 55.2616 98.0343 54.6259L73.1527 12.3741C72.7784 11.7384 71.8681 11.713 71.459 12.3268L70.6877 13.4837C70.4769 13.8 70.4635 14.2083 70.6532 14.5376L96.5338 59.4624C96.7235 59.7917 96.7101 60.2 96.4993 60.5163L95.7281 61.6732C95.3189 62.287 94.4086 62.2616 94.0343 61.6259L69.1527 19.3741C68.7784 18.7384 67.8681 18.713 67.459 19.3268L66.6877 20.4837C66.4769 20.8 66.4635 21.2083 66.6532 21.5376L92.5338 66.4624C92.7235 66.7917 92.7101 67.2 92.4993 67.5163L91.7281 68.6732C91.3189 69.287 90.4086 69.2616 90.0343 68.6259L65.1527 26.3741C64.7784 25.7384 63.8681 25.713 63.459 26.3268L62.6877 27.4837C62.4769 27.8 62.4635 28.2083 62.6532 28.5376L88.5338 73.4624C88.7235 73.7917 88.7101 74.2 88.4993 74.5163L87.7281 75.6732C87.3189 76.287 86.4086 76.2616 86.0343 75.6259L61.1527 33.3741C60.7784 32.7384 59.8681 32.713 59.459 33.3268L58.6895 34.481C58.4777 34.7986 58.4653 35.2091 58.6574 35.539L84.5532 80.0015C84.7328 80.31 84.7344 80.6909 84.5573 81.0009L83.6987 82.5034C83.3177 83.1701 82.3585 83.1764 81.9688 82.5146L57.1527 40.3741C56.7784 39.7384 55.8681 39.713 55.459 40.3268L54.6895 41.481C54.4777 41.7986 54.4653 42.2091 54.6574 42.539L80.5532 87.0015C80.7328 87.31 80.7344 87.6909 80.5573 88.0009L79.1314 90.4961C78.9534 90.8077 78.622 91 78.2632 91H26.4238C26.065 91 25.7336 90.8077 25.5556 90.4961L24.6984 88.9961C24.3175 88.3295 24.7989 87.5 25.5667 87.5H75.1203C75.8881 87.5 76.3695 86.6705 75.9886 86.0039L75.1314 84.5039C74.9534 84.1923 74.622 84 74.2632 84H22.4238C22.065 84 21.7336 83.8077 21.5556 83.4961L20.6984 81.9961C20.3175 81.3295 20.7989 80.5 21.5667 80.5H71.1203C71.8881 80.5 72.3695 79.6705 71.9886 79.0039L71.1314 77.5039C70.9534 77.1923 70.622 77 70.2632 77H18.4238C18.065 77 17.7336 76.8077 17.5556 76.4961L16.6984 74.9961C16.3175 74.3295 16.7989 73.5 17.5667 73.5H67.1203C67.8881 73.5 68.3695 72.6705 67.9886 72.0039L67.1314 70.5039C66.9534 70.1923 66.622 70 66.2632 70H14.4238C14.065 70 13.7336 69.8077 13.5556 69.4961L12.6984 67.9961C12.3175 67.3295 12.7989 66.5 13.5667 66.5H63.1203C63.8881 66.5 64.3695 65.6705 63.9886 65.0039L63.1314 63.5039C62.9534 63.1923 62.622 63 62.2632 63H10.4238C10.065 63 9.73363 62.8077 9.55558 62.4961L8.69844 60.9961C8.3175 60.3295 8.79886 59.5 9.56668 59.5H58.1203C58.8881 59.5 59.3695 58.6705 58.9886 58.0039L58.1314 56.5039C57.9534 56.1923 57.622 56 57.2632 56H6.39292C6.05077 56 5.73236 55.8251 5.54887 55.5363L4.59585 54.0363C4.17286 53.3705 4.65114 52.5 5.4399 52.5H54.1203C54.8881 52.5 55.3695 51.6705 54.9886 51.0039L54.1314 49.5039C53.9534 49.1923 53.622 49 53.2632 49H2.48163C2.12791 49 1.80051 48.8131 1.62062 48.5086L0.139 46.0003C-0.0436969 45.691 -0.0464569 45.3074 0.131769 44.9955L25.5556 0.50386C25.7336 0.192284 26.065 0 26.4238 0H28.6203C29.3881 0 29.8695 0.829483 29.4886 1.49614L5.19844 44.0039C4.8175 44.6705 5.29886 45.5 6.06669 45.5H7.26868C7.62459 45.5 7.95368 45.3108 8.1328 45.0033L34.0542 0.496719C34.2333 0.189171 34.5624 0 34.9183 0H36.6203C37.3881 0 37.8695 0.829483 37.4886 1.49614L13.1984 44.0039C12.8175 44.6705 13.2989 45.5 14.0667 45.5H15.2687C15.6246 45.5 15.9537 45.3108 16.1328 45.0033L42.0542 0.496719C42.2333 0.189171 42.5624 0 42.9183 0H44.6203C45.3881 0 45.8695 0.829483 45.4886 1.49614L21.1984 44.0039C20.8175 44.6705 21.2989 45.5 22.0667 45.5H23.2687C23.6246 45.5 23.9537 45.3108 24.1328 45.0033L50.0542 0.496719C50.2333 0.189171 50.5624 0 50.9183 0H52.6203C53.3881 0 53.8695 0.829483 53.4886 1.49614L29.1984 44.0039C28.8175 44.6705 29.2989 45.5 30.0667 45.5H31.2687C31.6246 45.5 31.9537 45.3108 32.1328 45.0033L58.0542 0.496719C58.2333 0.189171 58.5624 0 58.9183 0H60.6203C61.3881 0 61.8695 0.829483 61.4886 1.49614L37.1984 44.0039C36.8175 44.6705 37.2989 45.5 38.0667 45.5H39.2687C39.6246 45.5 39.9537 45.3108 40.1328 45.0033L66.0542 0.496719C66.2333 0.189171 66.5624 0 66.9183 0H69.1038C69.8753 0 70.3562 0.836617 69.968 1.50328L45.219 43.9967C44.8308 44.6634 45.3117 45.5 46.0832 45.5H47.7632C48.122 45.5 48.4534 45.3077 48.6314 44.9961L74.0556 0.50386C74.2336 0.192284 74.565 0 74.9238 0H77.2709C77.6256 0 77.9538 0.187897 78.1333 0.493797Z" fill="#34A853"/>
</svg>
